# AST/ASF file generated using VICON BodyLanguage
# -----------------------------------------------
:version 1.10
:name VICON
:units
  mass 1.0
  length 0.45
  angle deg
:documentation
   .ast/.asf automatically generated from VICON data using
   VICON BodyBuilder and BodyLanguage model FoxedUp or BRILLIANT.MOD
:root
   order TX TY TZ RX RY RZ
   axis XYZ
   position 0 0 0  
   orientation 0 0 0 
:bonedata
  begin
     id 1 
     name lhipjoint
     direction 0.646657 -0.683706 0.338203 
     length 2.4948 
     axis 0 0 0  XYZ
  end
  begin
     id 2 
     name lfemur
     direction 0.34202 -0.939693 0  
     length 6.79491  
     axis 0 0 20  XYZ
    dof rx ry rz
    limits (-160.0 20.0)
           (-70.0 70.0)
           (-60.0 70.0)
  end
  begin
     id 3 
     name ltibia
     direction 0.34202 -0.939693 0   
     length 7.56807   
     axis 0 0 20   XYZ
    dof rx
    limits (-10.0 170.0)
  end
  begin
     id 4 
     name lfoot
     direction 0.0679796 -0.186772 0.980048   
     length 2.53018   
     axis -90 7.62852e-016 20   XYZ
    dof rx rz
    limits (-45.0 90.0)
           (-70.0 20.0)
  end
  begin
     id 5 
     name ltoes
     direction 1.53625e-011 -4.21881e-011 1   
     length 1.26912   
     axis -90 7.62852e-016 20   XYZ
    dof rx
    limits (-90.0 20.0)
  end
  begin
     id 6 
     name rhipjoint
     direction -0.618868 -0.704065 0.348274   
     length 2.42265  
     axis 0 0 0  XYZ 
  end
  begin
     id 7 
     name rfemur
     direction -0.34202 -0.939693 0   
     length 6.73814   
     axis 0 0 -20   XYZ
    dof rx ry rz
    limits (-160.0 20.0)
           (-70.0 70.0)
           (-70.0 60.0)
  end
  begin
     id 8 
     name rtibia
     direction -0.34202 -0.939693 0   
     length 7.66799   
     axis 0 0 -20   XYZ
    dof rx
    limits (-10.0 170.0)
 end
 begin
     id 9 
     name rfoot
     direction -0.0727352 -0.199838 0.977125   
     length 2.57224  
     axis -90 -7.62852e-016 -20   XYZ
    dof rx rz
    limits (-45.0 90.0)
           (-20.0 70.0)
  end
  begin
     id 10 
     name rtoes
     direction -1.53501e-011 -4.21858e-011 1   
     length 1.28858   
     axis -90 -7.62852e-016 -20   XYZ
    dof rx
    limits (-90.0 20.0)
  end
  begin
     id 11 
     name lowerback
     direction -0.0172471 0.995767 -0.0902851   
     length 2.20206   
     axis 0 0 0   XYZ
    dof rx ry rz
    limits (-20.0 45.0)
           (-30.0 30.0)
           (-30.0 30.0)
  end
  begin
     id 12 
     name upperback
     direction -0.000110737 0.999714 0.0239043   
     length 2.19523   
     axis 0 0 0   XYZ
    dof rx ry rz
    limits (-20.0 45.0)
           (-30.0 30.0)
           (-30.0 30.0)
  end
  begin
     id 13 
     name thorax
     direction 0.00704869 0.997783 0.0661741   
     length 2.21977   
     axis 0 0 0   XYZ
    dof rx ry rz
    limits (-20.0 45.0)
           (-30.0 30.0)
           (-30.0 30.0)
  end
  begin
     id 14 
     name lowerneck
     direction -0.00407501 0.995527 0.0943846   
     length 1.83142   
     axis 0 0 0   XYZ
    dof rx ry rz
    limits (-20.0 45.0)
           (-30.0 30.0)
           (-30.0 30.0)
  end
  begin
     id 15 
     name upperneck
     direction 0.0640586 0.986486 -0.150807   
     length 1.84616   
     axis 0 0 0   XYZ
    dof rx ry rz
    limits (-20.0 45.0)
           (-30.0 30.0)
           (-30.0 30.0)
  end
  begin
     id 16
     name head
     direction 0.0188017 0.99791 -0.0618239  
     length 1.85932  
     axis 0 0 0   XYZ
    dof rx ry rz
    limits (-20.0 45.0)
           (-30.0 30.0)
           (-30.0 30.0)
  end
  begin
     id 17 
     name lclavicle
     direction 0.976074 0.206905 0.066852  
     length 3.81043  
     axis 0 0 0   XYZ
    dof ry rz
    limits (-20.0 10.0)
           (0.0 20.0)
  end
  begin
     id 18 
     name lhumerus
     direction 1 -4.48971e-011 1.86916e-027   
     length 5.37587   
     axis 180 -30 -90   XYZ
    dof rx ry rz
    limits (-60.0 90.0)
           (-90.0 90.0)
           (-90.0 90.0)
  end
  begin
     id 19
     name lradius
     direction 1 -4.48968e-011 1.69187e-027   
     length 3.35977   
     axis 180 -30 -90   XYZ
    dof rx
    limits (-10.0 170.0)
  end
  begin
     id 20
     name lwrist
     direction 1 -4.48968e-011 5.8978e-027   
     length 1.67988   
     axis -3.27506e-015 90 90   XYZ
    dof ry
    limits (-180.0 0.0)
 end
  begin
     id 21 
     name lhand
     direction 1 -4.49028e-011 1.18071e-026   
     length 0.561859   
     axis -7.52654e-015 90 90   XYZ
    dof rx rz
    limits (-90.0 90.0)
           (-45.0 45.0)
  end
  begin
     id 22 
     name lfingers
     direction 1 -4.48927e-011 2.35758e-026   
     length 0.452985   
     axis -1.50534e-014 90 90   XYZ
    dof rx
    limits (0.0 90.0)
  end
  begin
     id 23
     name lthumb
     direction 0.707107 -6.34898e-011 0.707107   
     length 0.650399   
     axis -90 45 5.69224e-014   XYZ
    dof rx rz
    limits (-45.0 45.0)
           (-45.0 45.0)
  end
  begin
     id 24 
     name rclavicle
     direction -0.988403 0.151789 0.00439714   
     length 3.6942  
     axis 0 0 0   XYZ 
    dof ry rz
    limits (-10.0 20.0)
           (-20.0 0.0)
  end
  begin
     id 25 
     name rhumerus
     direction -1 -4.48978e-011 1.62495e-027  
     length 5.22819   
     axis 180 30 90   XYZ
    dof rx ry rz
    limits (-90.0 60.0)
           (-90.0 90.0)
           (-90.0 90.0)
  end
  begin
     id 26 
     name rradius
     direction -1 -4.48961e-011 3.47796e-027   
     length 3.40764   
     axis 180 30 90   XYZ
    dof rx
    limits (-10.0 170.0)
  end
  begin
     id 27 
     name rwrist
     direction -1 -4.48949e-011 5.89602e-027   
     length 1.70382   
     axis -3.27506e-015 -90 -90   XYZ
    dof ry
    limits (-180.0 0.0)
  end
  begin
     id 28
     name rhand
     direction -1 -4.48977e-011 1.17973e-026   
     length 0.583255   
     axis -7.52654e-015 -90 -90   XYZ
    dof rx rz
    limits (-90.0 90.0)
           (-45.0 45.0)
  end
  begin
     id 29
     name rfingers
     direction -1 -4.49099e-011 2.36408e-026   
     length 0.470235   
     axis -1.50534e-014 -90 -90   XYZ
    dof rx
    limits (0.0 90.0)
  end
  begin
     id 30
     name rthumb
     direction -0.707107 -6.35011e-011 0.707107   
     length 0.675167   
     axis -90 -45 -5.69224e-014   XYZ
    dof rx rz
    limits (-45.0 45.0)
           (-45.0 45.0)
  end
:hierarchy
  begin
    root lhipjoint rhipjoint lowerback
    lhipjoint lfemur
    lfemur ltibia
    ltibia lfoot
    lfoot ltoes
    rhipjoint rfemur
    rfemur rtibia
    rtibia rfoot
    rfoot rtoes
    lowerback upperback
    upperback thorax
    thorax lowerneck lclavicle rclavicle
    lowerneck upperneck
    upperneck head
    lclavicle lhumerus
    lhumerus lradius
    lradius lwrist
    lwrist lhand lthumb
    lhand lfingers
    rclavicle rhumerus
    rhumerus rradius
    rradius rwrist
    rwrist rhand rthumb
    rhand rfingers
  end

#!OML:ASF G:\JayActor3\Patient Classification 1\Patient 1\Session 2\male.ASF
:FULLY-SPECIFIED
:DEGREES
154
root 49.5575 16.8142 -7.71194 19.227 -84.697 -17.7541
lowerback -3.26339 -0.33769 -1.454
upperback 5.56377 -0.43454 0.0434393
thorax 7.65848 -0.334034 0.812815
lowerneck -9.9671 -3.31713 -3.91939
upperneck 11.5853 -5.22381 9.09848
head 5.47506 -2.15422 3.08524
rclavicle 7.35503e-015 4.37326e-015
rhumerus -29.4002 -8.51619 -82.8667
rradius 30.4278
rwrist -1.66495
rhand -19.3556 3.2931
rfingers 7.12502
rthumb 6.96193 -26.5724
lclavicle 7.35503e-015 4.37326e-015
lhumerus -25.9853 4.63582 84.8412
lradius 28.8765
lwrist 9.53105
lhand -18.5435 17.3219
lfingers 7.12502
lthumb 7.74574 47.1601
rfemur -9.1851 0.896162 17.9747
rtibia 29.3357
rfoot -23.1119 -8.94473
rtoes 18.967
lfemur -3.18019 4.32306 -17.7837
ltibia 18.3698
lfoot -13.187 5.6314
ltoes -8.26297
155
root 49.5568 16.8115 -7.71388 19.1154 -84.4765 -17.6322
lowerback -3.28167 -0.355311 -1.40119
upperback 5.56684 -0.462008 0.0534101
thorax 7.6727 -0.344787 0.790845
lowerneck -9.86121 -3.3334 -3.94585
upperneck 11.5437 -5.24902 9.15254
head 5.44789 -2.16813 3.10576
rclavicle -1.14301e-014 -3.97569e-015
rhumerus -29.4561 -8.41471 -82.8734
rradius 30.51
rwrist -1.66695
rhand -19.3382 3.25506
rfingers 7.12502
rthumb 6.97867 -26.6099
lclavicle -1.14301e-014 -3.97569e-015
lhumerus -26.0452 4.65195 84.8435
lradius 29.0624
lwrist 9.58935
lhand -18.5506 17.3059
lfingers 7.12502
lthumb 7.73893 47.1443
rfemur -9.08579 0.667491 18.0102
rtibia 29.2237
rfoot -23.1183 -8.7336
rtoes 19.35
lfemur -3.39974 4.33446 -17.7066
ltibia 18.679
lfoot -13.2432 5.47013
ltoes -8.43533
156
root 49.5556 16.8084 -7.71496 19.1684 -84.2529 -17.6733
lowerback -3.30867 -0.369457 -1.33081
upperback 5.56968 -0.486224 0.0684214
thorax 7.69149 -0.353067 0.764564
lowerneck -9.75359 -3.35173 -3.97666
upperneck 11.5162 -5.27896 9.21428
head 5.42551 -2.18393 3.12912
rclavicle -1.46107e-014 5.96354e-015
rhumerus -29.5086 -8.30319 -82.8718
rradius 30.5862
rwrist -1.67115
rhand -19.3275 3.24256
rfingers 7.12502
rthumb 6.98906 -26.6221
lclavicle -1.46107e-014 5.96354e-015
lhumerus -26.1009 4.67631 84.8487
lradius 29.2364
lwrist 9.64783
lhand -18.5602 17.2926
lfingers 7.12502
lthumb 7.72961 47.1314
rfemur -8.98248 0.435534 18.0584
rtibia 29.1044
rfoot -23.1202 -8.50696
rtoes 19.7463
lfemur -3.64267 4.32548 -17.6194
ltibia 19.0311
lfoot -13.3217 5.33079
ltoes -8.5862
157
root 49.5538 16.8047 -7.715 19.3883 -84.0349 -17.881
lowerback -3.3459 -0.376276 -1.2411
upperback 5.57343 -0.502127 0.0873683
thorax 7.71685 -0.356269 0.732321
lowerneck -9.63911 -3.37392 -4.00084
upperneck 11.493 -5.31493 9.27002
head 5.40341 -2.20292 3.1491
rclavicle -1.32192e-014 1.19271e-015
rhumerus -29.5551 -8.18547 -82.8611
rradius 30.6566
rwrist -1.67777
rhand -19.3204 3.24675
rfingers 7.12502
rthumb 6.9959 -26.6176
lclavicle -1.32192e-014 1.19271e-015
lhumerus -26.1527 4.70205 84.8571
lradius 29.4005
lwrist 9.71074
lhand -18.5674 17.2843
lfingers 7.12502
lthumb 7.72274 47.1232
rfemur -8.87804 0.198152 18.1182
rtibia 28.98
rfoot -23.103 -8.27911
rtoes 20.0682
lfemur -3.90494 4.30554 -17.5228
ltibia 19.4228
lfoot -13.4224 5.21342
ltoes -8.73903
158
root 49.5515 16.8005 -7.71401 19.7849 -83.8295 -18.2649
lowerback -3.39087 -0.373294 -1.13202
upperback 5.57953 -0.506533 0.109767
thorax 7.74879 -0.352835 0.693924
lowerneck -9.53336 -3.39935 -4.01574
upperneck 11.4844 -5.35741 9.32219
head 5.38746 -2.22448 3.16584
rclavicle -5.66536e-015 7.55382e-015
rhumerus -29.5896 -8.05798 -82.8445
rradius 30.7234
rwrist -1.69759
rhand -19.3102 3.26256
rfingers 7.12502
rthumb 7.00573 -26.6015
lclavicle -5.66536e-015 7.55382e-015
lhumerus -26.1972 4.7289 84.8675
lradius 29.5553
lwrist 9.77895
lhand -18.5768 17.279
lfingers 7.12502
lthumb 7.71366 47.1183
rfemur -8.77712 -0.0386841 18.1909
rtibia 28.8536
rfoot -23.0698 -8.05264
rtoes 20.3145
lfemur -4.18226 4.28729 -17.4151
ltibia 19.847
lfoot -13.541 5.11633
ltoes -8.91164
159
root 49.5487 16.7961 -7.71203 20.3205 -83.6372 -18.7878
lowerback -3.44271 -0.361285 -1.00625
upperback 5.58831 -0.500316 0.134523
thorax 7.78729 -0.343307 0.649661
lowerneck -9.44011 -3.4279 -4.02664
upperneck 11.4915 -5.40592 9.37411
head 5.37887 -2.24821 3.18124
rclavicle 1.86858e-014 7.15625e-015
rhumerus -29.61 -7.92063 -82.8234
rradius 30.7892
rwrist -1.72231
rhand -19.2918 3.28015
rfingers 7.12502
rthumb 7.02351 -26.5833
lclavicle 1.86858e-014 7.15625e-015
lhumerus -26.2399 4.7494 84.8815
lradius 29.7119
lwrist 9.86576
lhand -18.5947 17.2764
lfingers 7.12502
lthumb 7.69634 47.1163
rfemur -8.68168 -0.273519 18.2746
rtibia 28.7295
rfoot -23.0235 -7.83077
rtoes 20.4885
lfemur -4.46876 4.27844 -17.2978
ltibia 20.2939
lfoot -13.674 5.03541
ltoes -9.09423
160
root 49.5456 16.7913 -7.70898 20.9841 -83.4625 -19.4406
lowerback -3.49664 -0.341738 -0.866706
upperback 5.59874 -0.485488 0.163064
thorax 7.8286 -0.328863 0.60253
lowerneck -9.36072 -3.45667 -4.03396
upperneck 11.5152 -5.45551 9.41935
head 5.37762 -2.27204 3.19374
rclavicle -4.77083e-015 5.56597e-015
rhumerus -29.6151 -7.76212 -82.7984
rradius 30.8545
rwrist -1.75774
rhand -19.2445 3.30977
rfingers 7.12502
rthumb 7.06913 -26.5522
lclavicle -4.77083e-015 5.56597e-015
lhumerus -26.283 4.78085 84.8982
lradius 29.8646
lwrist 9.96211
lhand -18.6289 17.2712
lfingers 7.12502
lthumb 7.66334 47.1124
rfemur -8.59253 -0.499336 18.368
rtibia 28.6119
rfoot -22.9695 -7.61313
rtoes 20.6074
lfemur -4.75631 4.27988 -17.1729
ltibia 20.7526
lfoot -13.8167 4.97705
ltoes -9.32957
161
root 49.542 16.7863 -7.70495 21.723 -83.3013 -20.1713
lowerback -3.54848 -0.318589 -0.720372
upperback 5.60948 -0.466937 0.1961
thorax 7.86906 -0.312312 0.556742
lowerneck -9.28865 -3.4828 -4.03806
upperneck 11.5463 -5.50068 9.45273
head 5.37916 -2.29393 3.20226
rclavicle 1.13307e-014 -5.1684e-015
rhumerus -29.6093 -7.57333 -82.7699
rradius 30.9243
rwrist -1.80648
rhand -19.1543 3.36159
rfingers 7.12502
rthumb 7.15624 -26.4974
lclavicle 1.13307e-014 -5.1684e-015
lhumerus -26.3341 4.8208 84.9194
lradius 30.0202
lwrist 10.0705
lhand -18.6764 17.2711
lfingers 7.12502
lthumb 7.61747 47.1139
rfemur -8.50894 -0.713125 18.4687
rtibia 28.5044
rfoot -22.9171 -7.40195
rtoes 20.6948
lfemur -5.03806 4.28577 -17.0435
ltibia 21.2135
lfoot -13.968 4.93704
ltoes -9.58347
162
root 49.5382 16.7809 -7.69977 22.5174 -83.1565 -20.961
lowerback -3.59591 -0.294497 -0.570998
upperback 5.61805 -0.44797 0.234402
thorax 7.90476 -0.295489 0.514898
lowerneck -9.21941 -3.5017 -4.04253
upperneck 11.5862 -5.53459 9.47239
head 5.38272 -2.31089 3.20745
rclavicle 1.59028e-015 -5.1684e-015
rhumerus -29.5982 -7.34173 -82.7384
rradius 30.9975
rwrist -1.86129
rhand -19.0401 3.44218
rfingers 7.12502
rthumb 7.26642 -26.4131
lclavicle 1.59028e-015 -5.1684e-015
lhumerus -26.404 4.88034 84.9444
lradius 30.1807
lwrist 10.1816
lhand -18.7269 17.2534
lfingers 7.12502
lthumb 7.56872 47.098
rfemur -8.43089 -0.908073 18.5725
rtibia 28.4093
rfoot -22.8687 -7.19321
rtoes 20.7793
lfemur -5.30767 4.2879 -16.9151
ltibia 21.6693
lfoot -14.1254 4.92586
ltoes -9.85471
163
root 49.5339 16.7751 -7.69333 23.3657 -83.0294 -21.8105
lowerback -3.63537 -0.268046 -0.418341
upperback 5.62433 -0.426638 0.276818
thorax 7.93344 -0.2774 0.475873
lowerneck -9.15218 -3.51445 -4.04746
upperneck 11.6339 -5.55896 9.48041
head 5.38799 -2.32371 3.20982
rclavicle -8.94531e-016 5.96354e-015
rhumerus -29.5838 -7.07699 -82.7031
rradius 31.074
rwrist -1.91803
rhand -18.9176 3.54291
rfingers 7.12502
rthumb 7.38466 -26.3082
lclavicle -8.94531e-016 5.96354e-015
lhumerus -26.4939 4.9527 84.9723
lradius 30.3422
lwrist 10.287
lhand -18.7784 17.216
lfingers 7.12502
lthumb 7.51906 47.0623
rfemur -8.35541 -1.0829 18.678
rtibia 28.3273
rfoot -22.8254 -6.98273
rtoes 20.878
lfemur -5.55758 4.28579 -16.7879
ltibia 22.1151
lfoot -14.2931 4.93407
ltoes -10.1229
